<svg xmlns="http://www.w3.org/2000/svg" viewBox="0 0 1125 701.4"><path fill="#fff" d="M0 0h1125v701.4H0z"/><path fill="#e3e8ef" d="M0 0h1125v55.2H0z"/><path fill="#fff" d="M305 13.4h515a14 14 0 0 1 14 14A14 14 0 0 1 820 41H305a14 14 0 0 1-14-14 14 14 0 0 1 14-13.8z"/><rect width="23.2" height="23.2" x="18.8" y="17" fill="#fff" rx="4.4" ry="4.4"/><rect width="23.2" height="23.2" x="47.4" y="17" fill="#fff" rx="4.4" ry="4.4"/><rect width="39" height="23.2" x="92" y="17" fill="#fff" rx="5.7" ry="5.7"/><rect width="923.6" height="201.7" x="66.7" y="134.3" fill="#e3e8ef" rx="19.6" ry="19.6"/></svg>
