<svg xmlns="http://www.w3.org/2000/svg" xmlns:xlink="http://www.w3.org/1999/xlink" viewBox="0 0 398.01 753.54"><defs><clipPath id="a"><rect width="398.01" height="753.54" rx="9.71" ry="9.71" fill="none"/></clipPath></defs><title>continous-chat</title><g clip-path="url(#a)"><g opacity="0.85"><rect width="398.01" height="753.54" rx="9.71" ry="9.71" fill="#1e233b"/></g><rect x="178.63" y="624.36" width="188.92" height="60.08" rx="29.72" ry="29.72" fill="#3e7ce4"/><path d="M434.91,755.52H-9.89A11.41,11.41,0,0,1-21.3,744.11v-74.9H446.32v74.9A11.41,11.41,0,0,1,434.91,755.52Z" fill="#fff"/></g><line x1="355.09" y1="21.59" x2="376.61" y2="43.11" fill="none" stroke="#fff" stroke-linecap="round" stroke-miterlimit="10" stroke-width="2"/><line x1="355.09" y1="43.11" x2="376.61" y2="21.59" fill="none" stroke="#fff" stroke-linecap="round" stroke-miterlimit="10" stroke-width="2"/><rect x="100.22" y="227.15" width="205.93" height="58.79" rx="29.4" ry="29.4" fill="#e8eaec"/><rect x="274.22" y="154.65" width="93.33" height="58.79" rx="29.4" ry="29.4" fill="#3e7ce4"/><rect x="163.19" y="307.65" width="204.37" height="58.79" rx="29.4" ry="29.4" fill="#3e7ce4"/><rect x="194.42" y="469.64" width="173.13" height="58.79" rx="29.4" ry="29.4" fill="#3e7ce4"/><path d="M186.54,85.63H175.72V84.12l5.72-6.35a13.57,13.57,0,0,0,1.75-2.34,3.91,3.91,0,0,0,.48-1.87,3,3,0,0,0-.78-2.12,2.74,2.74,0,0,0-2.09-.83,3.24,3.24,0,0,0-2.43.89A3.4,3.4,0,0,0,177.5,74h-2.1a4.87,4.87,0,0,1,1.47-3.69,5.45,5.45,0,0,1,3.93-1.41,5.23,5.23,0,0,1,3.64,1.21,4.12,4.12,0,0,1,1.34,3.22q0,2.44-3.11,5.81l-4.43,4.8h8.29Z" fill="#fff"/><path d="M199.13,78.59a9.61,9.61,0,0,1-1.26,5.48,5.23,5.23,0,0,1-7.85,0,9.11,9.11,0,0,1-1.32-5.24v-2.8A9.39,9.39,0,0,1,190,70.65a5.33,5.33,0,0,1,7.88-.06,9.06,9.06,0,0,1,1.29,5.27ZM197,75.71a7.7,7.7,0,0,0-.75-3.89,2.58,2.58,0,0,0-2.37-1.22,2.54,2.54,0,0,0-2.35,1.21,7.51,7.51,0,0,0-.76,3.73v3.36a7.81,7.81,0,0,0,.78,4,2.57,2.57,0,0,0,2.35,1.28,2.54,2.54,0,0,0,2.31-1.2,7.53,7.53,0,0,0,.79-3.79Z" fill="#fff"/><path d="M208.71,85.63H206.6v-14l-4.23,1.55V71.29l6-2.26h.33Z" fill="#fff"/><path d="M223.73,80.08H226V81.8h-2.29v3.84h-2.11V81.8h-7.52V80.56l7.4-11.45h2.24Zm-7.25,0h5.14V72l-.25.45Z" fill="#fff"/><rect x="25.34" y="226.54" width="60" height="60" rx="30" ry="30" fill="#e8eaec"/><rect x="100.22" y="388.15" width="167.26" height="58.79" rx="29.4" ry="29.4" fill="#e8eaec"/><rect x="25.34" y="387.54" width="60" height="60" rx="30" ry="30" fill="#e8eaec"/><rect x="100.22" y="548.49" width="167.26" height="58.79" rx="29.4" ry="29.4" fill="#e8eaec"/><rect x="25.34" y="547.87" width="60" height="60" rx="30" ry="30" fill="#e8eaec"/></svg>