<svg xmlns="http://www.w3.org/2000/svg" viewBox="0 0 511.6 758.9"><path fill="#fff" d="M0 0h511.6v759H0z"/><rect width="482.4" height="97.3" x="14.6" y="646.5" fill="#e3e8ef" rx="7" ry="7"/><rect width="121.9" height="38.4" x="194.9" y="33" fill="#d3e7f8" rx="19.2" ry="19.2"/><rect width="339.1" height="60.5" x="147.2" y="171" fill="#3e7ce4" rx="30.3" ry="30.3" transform="rotate(-180 316.71 201.24)" opacity=".5"/><rect width="283.1" height="60.5" x="203.2" y="256" fill="#3e7ce4" rx="27.6" ry="27.6" transform="rotate(-180 344.73 286.25)" opacity=".5"/><rect width="390.8" height="60.5" x="33.4" y="540.4" fill="#e8eaec" rx="30.3" ry="30.3"/><path fill="#527281" d="M57.6 577l2.8-16.4h4.3a6 6 0 0 1 3.4 1 5.5 5.5 0 0 1 2.2 2.8 8.6 8.6 0 0 1 .3 4v.8a9.3 9.3 0 0 1-2.8 5.7 8 8 0 0 1-5.8 2zm4.6-14.6l-2.2 13h2a5.8 5.8 0 0 0 4-1.6 7 7 0 0 0 2.2-4 13.3 13.3 0 0 0 .3-3.6 4.3 4.3 0 0 0-1.2-2.7 3.7 3.7 0 0 0-2.6-1zM78.8 564.7a4.4 4.4 0 0 1 2.6.8 4.7 4.7 0 0 1 1.6 2.2 7 7 0 0 1 .3 3v.4a8.2 8.2 0 0 1-1 3.3 6.2 6.2 0 0 1-2.2 2.2 5.3 5.3 0 0 1-2.8.8 4.4 4.4 0 0 1-2.6-1 4.6 4.6 0 0 1-1.6-2 7 7 0 0 1-.4-3 8.3 8.3 0 0 1 1-3.5 6.3 6.3 0 0 1 2.2-2.3 5.3 5.3 0 0 1 3-.8zm-4.2 6.5a7 7 0 0 0 0 1.4 3.6 3.6 0 0 0 .8 2 2.4 2.4 0 0 0 1.8 1 3.2 3.2 0 0 0 2-.5 4.2 4.2 0 0 0 1.3-1.5 6.8 6.8 0 0 0 .8-2.4 10.8 10.8 0 0 0 0-1.7 3.7 3.7 0 0 0-.8-2 2.4 2.4 0 0 0-2-1 3.3 3.3 0 0 0-2.5 1.3 6 6 0 0 0-1.4 3.3zM94.8 574l4.4-9h2.2l-7.2 14q-1.5 3-4 3a6.7 6.7 0 0 1-1-.2V580l.6.2a2.7 2.7 0 0 0 1.7-.5 4 4 0 0 0 1.2-1.5l.8-1.4-2-12h2zM107.7 564.7a4.4 4.4 0 0 1 2.7.8 4.7 4.7 0 0 1 1.6 2.2 7 7 0 0 1 .3 3v.4a8.2 8.2 0 0 1-1 3.3 6.2 6.2 0 0 1-2.2 2.2 5.3 5.3 0 0 1-3 .8 4.4 4.4 0 0 1-2.5-1 4.6 4.6 0 0 1-1.6-2 7 7 0 0 1-.4-3 8.3 8.3 0 0 1 1-3.5 6.3 6.3 0 0 1 2.2-2.4 5.3 5.3 0 0 1 3-.7zm-4 6.5a7 7 0 0 0 0 1.4 3.6 3.6 0 0 0 .7 2 2.4 2.4 0 0 0 1.8 1 3.2 3.2 0 0 0 2-.5 4.2 4.2 0 0 0 1.3-1.5 6.8 6.8 0 0 0 .8-2.4 10.8 10.8 0 0 0 0-1.7 3.7 3.7 0 0 0-1-2 2.4 2.4 0 0 0-1.7-1 3.3 3.3 0 0 0-2.6 1.3 6 6 0 0 0-1.4 3.3zM121.5 575.8a4.7 4.7 0 0 1-3.6 1.5 3 3 0 0 1-2.7-1.3 4.8 4.8 0 0 1-.6-3.3l1.3-7.8h2l-1.3 7.8a5.3 5.3 0 0 0 0 1 2 2 0 0 0 .5 1.2 1.6 1.6 0 0 0 1.2.5 3.6 3.6 0 0 0 3.3-1.7l1.6-9h2l-2 12.2h-2zM135.7 566.4a4.7 4.7 0 0 1 3.6-1.7 3 3 0 0 1 2.6 1 4.6 4.6 0 0 1 .5 3.4l-1.4 8h-2l1.5-8a4.3 4.3 0 0 0 0-1 1.7 1.7 0 0 0-2-1.5 3.7 3.7 0 0 0-3 2l-1.6 8.5h-2l3-17.3h2zM151.7 577a2.7 2.7 0 0 1 0-.6v-.7a5 5 0 0 1-3.6 1.5 3.6 3.6 0 0 1-2.5-1 3 3 0 0 1-1-2.5 3.7 3.7 0 0 1 1.7-3 7.2 7.2 0 0 1 4.2-1h2l.2-1a2.2 2.2 0 0 0-.4-1.8 2 2 0 0 0-1.6-.7 3 3 0 0 0-1.8.5 2.2 2.2 0 0 0-1 1.4h-2a3.3 3.3 0 0 1 .8-2 4.8 4.8 0 0 1 2-1.2 6 6 0 0 1 2.2-.4 4 4 0 0 1 3 1 3.6 3.6 0 0 1 1 3l-1 6v1a4.3 4.3 0 0 0 0 1.2v.2zm-3.2-1.6a3.5 3.5 0 0 0 2-.4 4.7 4.7 0 0 0 1.4-1.4l.3-2.5h-1.5a5.8 5.8 0 0 0-3 .7 2.2 2.2 0 0 0-1 1.7 1.7 1.7 0 0 0 .3 1.5 2 2 0 0 0 1.5.5zM160.8 574.2l4.3-9.3h2.3l-6 12h-1.7l-2.4-12.2h2zM172.4 577.3a4.4 4.4 0 0 1-3.6-1.7 5.8 5.8 0 0 1-1-4.2v-.4a8 8 0 0 1 1-3.3 6.2 6.2 0 0 1 2.2-2.3 5 5 0 0 1 2.8-.7 4 4 0 0 1 3 1.2 5 5 0 0 1 1 3.2 9.7 9.7 0 0 1 0 1.5v1h-8a4 4 0 0 0 .6 2.7 2.6 2.6 0 0 0 2.2 1.2 4.3 4.3 0 0 0 3.3-1.6l1 1a5.3 5.3 0 0 1-2 1.7 5.6 5.6 0 0 1-2.6.6zm1.3-11a3 3 0 0 0-2.2 1 6 6 0 0 0-1.5 2.6h6v-.3a3.3 3.3 0 0 0-.6-2.4 2 2 0 0 0-1.7-1zM192 577a2.7 2.7 0 0 1 0-.6v-.7a5 5 0 0 1-3.5 1.5 3.6 3.6 0 0 1-2.6-1 3 3 0 0 1-1-2.5 3.7 3.7 0 0 1 1.6-3 7.2 7.2 0 0 1 4.2-1h2.2v-1a2.2 2.2 0 0 0-.3-1.8 2 2 0 0 0-1.6-.7 3 3 0 0 0-1.7.5 2.2 2.2 0 0 0-1 1.4h-2a3.3 3.3 0 0 1 .8-2 4.8 4.8 0 0 1 2-1.2 6 6 0 0 1 2.3-.4 4 4 0 0 1 3 1 3.6 3.6 0 0 1 1 3l-1 6v1a4.3 4.3 0 0 0 0 1.2v.2zm-3-1.6a3.5 3.5 0 0 0 1.8-.4 4.7 4.7 0 0 0 1.5-1.4l.4-2.5h-1.5a5.8 5.8 0 0 0-3 .7 2.2 2.2 0 0 0-1 1.7 1.7 1.7 0 0 0 .3 1.5 2 2 0 0 0 1.4.5zM201 565l-.3 1.4a4.8 4.8 0 0 1 3.7-1.7 3 3 0 0 1 2.6 1.2 4.6 4.6 0 0 1 .6 3l-1.3 8h-2l1.3-8a4.3 4.3 0 0 0 0-1 1.7 1.7 0 0 0-2-1.5 3.8 3.8 0 0 0-3 2L199 577h-2l2-12.2zM213.7 574l4.3-9h2.3l-7.2 14q-1.4 3-3.8 3a6.7 6.7 0 0 1-1.2-.2l.2-1.7.5.2a2.7 2.7 0 0 0 1.7-.4 4 4 0 0 0 1.2-1.6l.7-1.4-2-12h2zM226.3 571a9.5 9.5 0 0 1 1-3.4 5.8 5.8 0 0 1 2-2.2 4.5 4.5 0 0 1 2.5-.7 3.8 3.8 0 0 1 3 1.4l1.3-6.2h2l-3 17.2h-1.7l.2-1.3a4.5 4.5 0 0 1-3.6 1.6 3.4 3.4 0 0 1-2.8-1.4 5.8 5.8 0 0 1-1-3.5 11 11 0 0 1 0-1.6zm2 1a4.2 4.2 0 0 0 .5 2.6 2 2 0 0 0 1.8 1 3.7 3.7 0 0 0 3-2l1-5.5a2.5 2.5 0 0 0-2.3-1.6 3 3 0 0 0-2.2.7 4.7 4.7 0 0 0-1.2 2.2 8.7 8.7 0 0 0-.6 3zM240.6 577h-2l2-12.2h2zm1.6-16.6a1 1 0 0 1 1 .3 1 1 0 0 1 .2 1 1.2 1.2 0 0 1-.3.8 1.2 1.2 0 0 1-.8.3 1 1 0 0 1-.8-.3 1 1 0 0 1-.4-.8 1.3 1.3 0 0 1 .4-1 1.2 1.2 0 0 1 .8-.3zM251.4 573.8q.2-1.3-1.4-1.8l-2-.6q-2.8-1-2.7-3a3.4 3.4 0 0 1 1.5-2.7 5.2 5.2 0 0 1 3.3-1 4.3 4.3 0 0 1 3 1 3.4 3.4 0 0 1 1.2 2.8h-2a2 2 0 0 0-.6-1.5 2.3 2.3 0 0 0-1.6-.6 3 3 0 0 0-1.8.5 2 2 0 0 0-.8 1.3q-.2 1 1.3 1.5l1 .3a6.6 6.6 0 0 1 3 1.5 2.7 2.7 0 0 1 .8 2 3.4 3.4 0 0 1-.8 2 4.2 4.2 0 0 1-1.8 1.4 6 6 0 0 1-2.4.3 4.7 4.7 0 0 1-3.2-1 3.5 3.5 0 0 1-1.2-3h2a2.2 2.2 0 0 0 .6 1.7 2.5 2.5 0 0 0 1.8.6 3.5 3.5 0 0 0 2-.5 1.8 1.8 0 0 0 .8-1.3zM260.6 575.6a3 3 0 0 0 2-.6 3 3 0 0 0 1.2-1.8h2a4.3 4.3 0 0 1-1 2 5.3 5.3 0 0 1-4.2 2 4.3 4.3 0 0 1-2.6-.7 4.4 4.4 0 0 1-1.5-2 7.2 7.2 0 0 1-.4-3.2l.2-.6a8 8 0 0 1 1-3 6 6 0 0 1 2-2.2 5.2 5.2 0 0 1 3-.8 4 4 0 0 1 3 1.3 4.4 4.4 0 0 1 1.2 3.2h-2a3 3 0 0 0-.6-2 2.3 2.3 0 0 0-1.7-.8 3.2 3.2 0 0 0-2.6 1.2 6.2 6.2 0 0 0-1.3 3.4v.3a9.7 9.7 0 0 0 0 1.5 3.4 3.4 0 0 0 1 2 2.4 2.4 0 0 0 1.6.8zM274 564.7a4.4 4.4 0 0 1 2.6.8 4.7 4.7 0 0 1 1.6 2.2 7 7 0 0 1 .4 3v.4a8.2 8.2 0 0 1-1 3.3 6.2 6.2 0 0 1-2.3 2.2 5.3 5.3 0 0 1-3 .8 4.4 4.4 0 0 1-2.5-1 4.6 4.6 0 0 1-1.6-2 7 7 0 0 1-.4-3 8.3 8.3 0 0 1 1-3.5 6.3 6.3 0 0 1 2.2-2.4 5.3 5.3 0 0 1 3-.7zm-4 6.5a7 7 0 0 0 0 1.4 3.6 3.6 0 0 0 .7 2 2.4 2.4 0 0 0 1.8 1 3.2 3.2 0 0 0 1.8-.5 4.2 4.2 0 0 0 1.5-1.5 6.8 6.8 0 0 0 .7-2.4 10.8 10.8 0 0 0 0-1.7 3.7 3.7 0 0 0-.8-2 2.4 2.4 0 0 0-1.8-1 3.3 3.3 0 0 0-2.8 1.3 6 6 0 0 0-1.3 3.3zM287.8 575.8a4.7 4.7 0 0 1-3.6 1.5 3 3 0 0 1-2.6-1.3 4.8 4.8 0 0 1-.6-3.3l1.3-7.8h2l-1.3 7.8a5.3 5.3 0 0 0 0 1 2 2 0 0 0 .5 1.2 1.6 1.6 0 0 0 1.2.5 3.6 3.6 0 0 0 3.3-1.7l1.6-9h2l-2 12.2h-2zM296.6 565l-.3 1.4a4.8 4.8 0 0 1 3.7-1.7 3 3 0 0 1 2.5 1.2 4.6 4.6 0 0 1 .7 3l-1.4 8h-2l1.4-8a4.3 4.3 0 0 0 0-1 1.7 1.7 0 0 0-2-1.5 3.8 3.8 0 0 0-3 2l-1.6 8.6h-2l2-12zM310.3 562l-.5 3h2.2l-.3 1.5h-2.2l-1.2 7.6a2.6 2.6 0 0 0 0 .6 1 1 0 0 0 1 1 5.8 5.8 0 0 0 1-.2l-.2 1.7a5.5 5.5 0 0 1-1.4.3 2 2 0 0 1-1.8-1 3.5 3.5 0 0 1-.5-2.3l1.3-7.5h-2.2l.3-1.6h2l.6-3zM324.7 564.7a4.4 4.4 0 0 1 2.7.8 4.7 4.7 0 0 1 1.6 2.2 7 7 0 0 1 .3 3v.4a8.2 8.2 0 0 1-1 3.3 6.2 6.2 0 0 1-2.2 2.2 5.3 5.3 0 0 1-2.8.8 4.4 4.4 0 0 1-2.7-1 4.6 4.6 0 0 1-1.6-2 7 7 0 0 1-.4-3 8.3 8.3 0 0 1 1-3.5 6.3 6.3 0 0 1 2.2-2.4 5.3 5.3 0 0 1 3-.7zm-4 6.5a7 7 0 0 0 0 1.4 3.6 3.6 0 0 0 .7 2 2.4 2.4 0 0 0 1.8 1 3.2 3.2 0 0 0 2-.5 4.2 4.2 0 0 0 1.3-1.5 6.8 6.8 0 0 0 .8-2.4 10.8 10.8 0 0 0 0-1.7 3.7 3.7 0 0 0-1-2 2.4 2.4 0 0 0-1.7-1 3.3 3.3 0 0 0-2.6 1.3 6 6 0 0 0-1.4 3.3zM335 565l-.4 1.4a4.8 4.8 0 0 1 3.7-1.7 3 3 0 0 1 2.5 1.2 4.6 4.6 0 0 1 .7 3l-1.4 8h-2l1.5-8a4.3 4.3 0 0 0 0-1 1.7 1.7 0 0 0-2-1.5 3.8 3.8 0 0 0-3 2l-1.6 8.6h-2l2-12zM361.4 577h-2l-5.8-12.7-2.3 12.7h-2l2.7-16.3h2l5.8 12.7 2.3-12.7h2.2zM367 577h-2l2.2-12.2h2zm1.8-16.6a1 1 0 0 1 .8.3 1 1 0 0 1 .4 1 1.2 1.2 0 0 1-.4.8 1.2 1.2 0 0 1-.8.3 1 1 0 0 1-1-.3 1 1 0 0 1-.2-.8 1.3 1.3 0 0 1 .3-1 1.2 1.2 0 0 1 .8-.3zM374.8 571.4l-1.6 1.5-.7 4h-2l3-17.2h2l-1.8 10.3 1.2-1.2 4.2-4h2.7l-5.7 5.2 3.8 7h-2zM387 577.3a4.4 4.4 0 0 1-3.7-1.7 5.8 5.8 0 0 1-1-4.2v-.4a8 8 0 0 1 1-3.3 6.2 6.2 0 0 1 2.2-2.3 5 5 0 0 1 2.8-.7 4 4 0 0 1 3 1.2 5 5 0 0 1 1 3.2 9.7 9.7 0 0 1 0 1.5v1h-8a4 4 0 0 0 .6 2.7 2.6 2.6 0 0 0 2 1.2 4.3 4.3 0 0 0 3.4-1.6l1.2 1a5.3 5.3 0 0 1-2 1.7 5.6 5.6 0 0 1-2.7.6zm1.2-11a3 3 0 0 0-2.2 1 6 6 0 0 0-1.5 2.6h6v-.3a3.3 3.3 0 0 0-.6-2.4 2 2 0 0 0-1.8-1zM396.8 572.5a6.2 6.2 0 0 1 .7-2.3 8 8 0 0 1 1.7-2l1-1a4.3 4.3 0 0 0 1.5-2.5 2.3 2.3 0 0 0-.3-1.7 2 2 0 0 0-1.5-.7 2.7 2.7 0 0 0-2 .6 2.8 2.8 0 0 0-1 1.5h-2a4.3 4.3 0 0 1 1.7-3 5 5 0 0 1 3.3-1 4 4 0 0 1 3 1 3.8 3.8 0 0 1 .8 3 6.2 6.2 0 0 1-2.3 4l-1.3 1.2a4.4 4.4 0 0 0-1.4 2.7zm-.8 3.5a1.3 1.3 0 0 1 .3-1 1.2 1.2 0 0 1 1-.2 1 1 0 0 1 .8.3 1 1 0 0 1 .4 1 1.2 1.2 0 0 1-.3.8 1.2 1.2 0 0 1-.8.3 1 1 0 0 1-1-.2 1 1 0 0 1-.2-.8zM72 513.6h1.2v10a4.4 4.4 0 0 1-1.2 3.2 4.2 4.2 0 0 1-3 1.2 4.4 4.4 0 0 1-3.3-1 4 4 0 0 1-1-3h1a3 3 0 0 0 1 2.2 3.2 3.2 0 0 0 2.2.8 3 3 0 0 0 2-1 3.5 3.5 0 0 0 1-2.3zM75.8 522.4a6.2 6.2 0 0 1 .6-2.8 4.4 4.4 0 0 1 4-2.6 4.3 4.3 0 0 1 3.5 1.5 5.7 5.7 0 0 1 1.2 4 6.3 6.3 0 0 1-.5 3 4.4 4.4 0 0 1-1.7 1.8 4.6 4.6 0 0 1-2.5.7 4.3 4.3 0 0 1-3.4-1.5 5.7 5.7 0 0 1-1.2-4zm1.2.3a4.8 4.8 0 0 0 1 3 3.3 3.3 0 0 0 5 0 5 5 0 0 0 1-3v-.3a5.4 5.4 0 0 0-.3-2.3 3.6 3.6 0 0 0-1.3-1.4 3.2 3.2 0 0 0-2-.6 3 3 0 0 0-2.4 1.3 5 5 0 0 0-1 3.2zM88.8 519a4 4 0 0 1 1.5-1.5 4 4 0 0 1 2-.5 3.2 3.2 0 0 1 2.5 1 4.3 4.3 0 0 1 1 3v6.8h-1.3v-7a3.2 3.2 0 0 0-.6-2 2.4 2.4 0 0 0-2-.8 3 3 0 0 0-2 .7 4 4 0 0 0-1.2 1.8v7.2h-1v-15h1zM99.7 517.2v1.8a4.2 4.2 0 0 1 1.5-1.5 4 4 0 0 1 2-.5 3.2 3.2 0 0 1 2.5 1 4.3 4.3 0 0 1 1 3v6.8h-1.3v-7a3.2 3.2 0 0 0-.6-2 2.4 2.4 0 0 0-2-.7 3 3 0 0 0-1.8.8 4 4 0 0 0-1.2 1.8v7.2h-1.2v-10.6zM122.8 524.3a2.3 2.3 0 0 0-.8-2 8.8 8.8 0 0 0-3-1.2 10.6 10.6 0 0 1-3.3-1.2 3.3 3.3 0 0 1 0-5.4 5.5 5.5 0 0 1 3.4-1 5.7 5.7 0 0 1 2.6.5 4.2 4.2 0 0 1 1.7 1.5 4 4 0 0 1 .7 2h-1.2a3 3 0 0 0-1-2.2 4 4 0 0 0-2.7-1 4.2 4.2 0 0 0-2.5.8 2.3 2.3 0 0 0-1 2 2 2 0 0 0 .8 1.8 8 8 0 0 0 2.8 1.2 13 13 0 0 1 3 1 4 4 0 0 1 1.5 1.4 3.4 3.4 0 0 1 .5 2 3.2 3.2 0 0 1-1.3 2.6 5.7 5.7 0 0 1-3.6 1 7 7 0 0 1-2.6-.6 4.2 4.2 0 0 1-2-1.5 4 4 0 0 1-.6-2.3h1.2a2.8 2.8 0 0 0 1 2.4 4.8 4.8 0 0 0 3 1 4.4 4.4 0 0 0 2.8-.8 2.3 2.3 0 0 0 1-2zM127.4 517.2v1.7a4 4 0 0 1 1.4-1.5 4 4 0 0 1 2-.5 3 3 0 0 1 3.2 2 4 4 0 0 1 1.5-1.5 4.2 4.2 0 0 1 2-.5q3.5 0 3.6 3.7v7h-1v-7a3 3 0 0 0-.7-2 2.5 2.5 0 0 0-2-.7 3 3 0 0 0-2 .8 3 3 0 0 0-1 2v7H133v-7a3 3 0 0 0-.6-2 2.5 2.5 0 0 0-2-.8 3 3 0 0 0-2 .7 3.7 3.7 0 0 0-1 1.8v7.3h-1.2v-10.6zM144 514.2a.8.8 0 0 1 .2-.6.8.8 0 0 1 .6-.2.8.8 0 0 1 .6.2.8.8 0 0 1 .2.6.8.8 0 0 1-.2.5.8.8 0 0 1-.6.2.8.8 0 0 1-.6-.3.8.8 0 0 1-.2-.5zm1.4 13.6h-1.2v-10.6h1.2zM150.3 514.5v2.7h2.2v1h-2.2v7a2.2 2.2 0 0 0 .4 1.3 1.2 1.2 0 0 0 1 .5 7.2 7.2 0 0 0 1 0v.8a3.8 3.8 0 0 1-1.3.2 2 2 0 0 1-1.7-.7 3.3 3.3 0 0 1-.6-2v-7h-1.8v-1h2v-2.8zM156 519a4 4 0 0 1 1.6-1.5 4 4 0 0 1 2-.5 3.2 3.2 0 0 1 2.5 1 4.3 4.3 0 0 1 1 3v6.8h-1.2v-7a3.2 3.2 0 0 0-.6-2 2.4 2.4 0 0 0-2-.7 3 3 0 0 0-1.8.8 4 4 0 0 0-1.2 1.8v7.2H155v-15h1.2zM170.7 514.2a.8.8 0 0 1 .2-.6.8.8 0 0 1 .5-.2.8.8 0 0 1 .6.2.8.8 0 0 1 .3.6.8.8 0 0 1-.2.5.8.8 0 0 1-.5.2.8.8 0 0 1-.6-.3.8.8 0 0 1-.3-.5zm1.4 13.6h-1v-10.6h1zM181.6 525a1.7 1.7 0 0 0-.7-1.3 5.4 5.4 0 0 0-2.2-.8 9.5 9.5 0 0 1-2.2-.8 3 3 0 0 1-1-1 2.4 2.4 0 0 1-.5-1.3 2.5 2.5 0 0 1 1-2.2 4.2 4.2 0 0 1 2.8-.8 4.3 4.3 0 0 1 2.8 1 2.8 2.8 0 0 1 1 2.2h-1a2 2 0 0 0-1-1.6 3.5 3.5 0 0 0-3.7 0 1.6 1.6 0 0 0-.8 1.3 1.4 1.4 0 0 0 .6 1 6 6 0 0 0 2 1 10 10 0 0 1 2.4.7 3 3 0 0 1 1.2 1 2.7 2.7 0 0 1-.7 3.5 4.6 4.6 0 0 1-3 .8 4.7 4.7 0 0 1-3-1 2.8 2.8 0 0 1-1-2.2h1.2a2 2 0 0 0 .7 1.6 3.5 3.5 0 0 0 2 .6 3.3 3.3 0 0 0 2-.5 1.6 1.6 0 0 0 1-1.4zM192 514.5v2.7h2.3v1H192v7a2.2 2.2 0 0 0 .4 1.3 1.2 1.2 0 0 0 1 .5 7.2 7.2 0 0 0 1 0v.8a3.8 3.8 0 0 1-1.2.2 2 2 0 0 1-1.8-.7 3.3 3.3 0 0 1-.5-2v-7h-2v-1h2v-2.8zM200 526l3-8.8h1.4l-4.6 12.4-.2.5a2.8 2.8 0 0 1-2.7 2 3.3 3.3 0 0 1-1 0v-1h.6a2.2 2.2 0 0 0 1.4-.5 3.2 3.2 0 0 0 1-1.4l.4-1.3-4-10.5h1.3zM214.7 522.6a6.4 6.4 0 0 1-1 4 3.5 3.5 0 0 1-3 1.4 4 4 0 0 1-3.4-1.5v5.4h-1V517h1v1.5a3.8 3.8 0 0 1 3.3-1.7 3.5 3.5 0 0 1 3 1.5 6.5 6.5 0 0 1 1 4zm-1.2-.2a5.4 5.4 0 0 0-.8-3.2 2.7 2.7 0 0 0-2.3-1.2 3 3 0 0 0-3 2v5a3 3 0 0 0 1.2 1.5 3.5 3.5 0 0 0 1.8.5 2.6 2.6 0 0 0 2.3-1.2 6 6 0 0 0 .8-3.4zM217.2 514.2a.8.8 0 0 1 .2-.6.8.8 0 0 1 .6-.2.8.8 0 0 1 .6.2.8.8 0 0 1 .2.6.8.8 0 0 1-.2.5.8.8 0 0 1-.6.2.8.8 0 0 1-.6-.3.8.8 0 0 1-.2-.5zm1.4 13.6h-1.2v-10.6h1.2zM223 517.2v1.8a4.2 4.2 0 0 1 1.4-1.5 4 4 0 0 1 2-.5 3.2 3.2 0 0 1 2.5 1 4.3 4.3 0 0 1 .7 3v6.8h-1v-7a3.2 3.2 0 0 0-.7-2 2.4 2.4 0 0 0-2-.7 3 3 0 0 0-1.8.8 4 4 0 0 0-1.3 1.8v7.2h-1.2v-10.6zM232.3 522.4a6.4 6.4 0 0 1 1-4 3.5 3.5 0 0 1 3-1.4 3.7 3.7 0 0 1 3.4 1.7v-1.5h1v10.4a4.5 4.5 0 0 1-1 3.2 4 4 0 0 1-3 1.2 4.7 4.7 0 0 1-2.2-.5 4 4 0 0 1-1.6-1.3l.5-.7a3.7 3.7 0 0 0 3 1.5 3 3 0 0 0 2.3-.8 3.4 3.4 0 0 0 .8-2.4v-1.4a3.8 3.8 0 0 1-3.2 1.6 3.5 3.5 0 0 1-3-1.5 6.4 6.4 0 0 1-1-4zm1.2.2a5.5 5.5 0 0 0 .8 3.2 2.6 2.6 0 0 0 2.3 1.2 3 3 0 0 0 3-2v-5a3.3 3.3 0 0 0-1.2-1.4 3.2 3.2 0 0 0-1.8-.5 2.6 2.6 0 0 0-2.3 1.2 6 6 0 0 0-.8 3.4zM243.7 527a.8.8 0 0 1 .3-.5.8.8 0 0 1 .6-.2.8.8 0 0 1 .6.2.8.8 0 0 1 .2.6.8.8 0 0 1-.2.7.8.8 0 0 1-.6.2.8.8 0 0 1-.6-.3.8.8 0 0 1-.3-.6zM248.5 527a.8.8 0 0 1 .2-.5.8.8 0 0 1 .6-.2.8.8 0 0 1 .7.2.8.8 0 0 1 .2.6.8.8 0 0 1-.2.7.8.8 0 0 1-.7.2.8.8 0 0 1-.6-.3.8.8 0 0 1-.2-.6zM253.3 527a.8.8 0 0 1 .2-.5.8.8 0 0 1 .6-.2.8.8 0 0 1 .7.2.8.8 0 0 1 .3.6.8.8 0 0 1-.3.7.8.8 0 0 1-.6.2.8.8 0 0 1-.5-.3.8.8 0 0 1-.2-.6z"/></svg>
