<svg id="Layer_1" xmlns="http://www.w3.org/2000/svg" xmlns:xlink="http://www.w3.org/1999/xlink" viewBox="0 0 760 572.3">
  <style>
    .st0{fill:#FFFFFF;} .st1{fill:#E3E8EF;} .st2{fill:#E8EAEC;} .st3{clip-path:url(#SVGID_2_);} .st4{opacity:0.85;} .st5{fill:#1E233B;} .st6{fill:none;stroke:#FFFFFF;stroke-width:2;stroke-linecap:round;stroke-miterlimit:10;}
  </style>
  <title>
    Asset 1
  </title>
  <path class="st0" d="M0 98.4h760v473.9H0V98.4z"/>
  <path class="st1" d="M0 98.4h760v37.3H0V98.4z"/>
  <path class="st0" d="M438 208.1h172v132H438v-132zM206 107.5h348c5.2 0 9.4 4.2 9.4 9.4s-4.2 9.4-9.4 9.4H206c-5.2 0-9.4-4.2-9.4-9.4s4.2-9.4 9.4-9.4zM15.6 109.9h9.8c1.6 0 3 1.3 3 3v9.8c0 1.6-1.3 3-3 3h-9.8c-1.6 0-3-1.3-3-3v-9.8c0-1.7 1.4-3 3-3zM34.9 109.9h9.8c1.6 0 3 1.3 3 3v9.8c0 1.6-1.3 3-3 3h-9.8c-1.6 0-3-1.3-3-3v-9.8c.1-1.7 1.4-3 3-3zM65.9 109.9h18.7c2.1 0 3.8 1.7 3.8 3.8v8c0 2.1-1.7 3.8-3.8 3.8H65.9c-2.1 0-3.8-1.7-3.8-3.8v-8c0-2.1 1.7-3.8 3.8-3.8z"/>
  <path class="st1" d="M58.2 189.1h597.5c7.3 0 13.2 5.9 13.2 13.2v109.8c0 7.3-5.9 13.2-13.2 13.2H58.2c-7.3 0-13.2-5.9-13.2-13.2V202.4c0-7.3 5.9-13.3 13.2-13.3z"/>
  <path class="st0" d="M722.8 110.1h18.7c2.1 0 3.8 1.7 3.8 3.8v8c0 2.1-1.7 3.8-3.8 3.8h-18.7c-2.1 0-3.8-1.7-3.8-3.8v-8c-.1-2.1 1.6-3.8 3.8-3.8zM686.9 110.1h18.6c2.1 0 3.8 1.7 3.8 3.8v8c0 2.1-1.7 3.8-3.8 3.8h-18.7c-2.1 0-3.8-1.7-3.8-3.8v-8c0-2.1 1.7-3.8 3.9-3.8z"/>
  <path class="st2" d="M308.7 403.4h148.2c1.9 0 3.5 1.6 3.5 3.5s-1.6 3.5-3.5 3.5H308.7c-1.9 0-3.5-1.6-3.5-3.5 0-2 1.5-3.5 3.5-3.5zM308.7 386.4h148.2c1.9 0 3.5 1.6 3.5 3.5s-1.6 3.5-3.5 3.5H308.7c-1.9 0-3.5-1.6-3.5-3.5 0-2 1.5-3.5 3.5-3.5zM308.7 369.4h148.2c1.9 0 3.5 1.6 3.5 3.5s-1.6 3.5-3.5 3.5H308.7c-1.9 0-3.5-1.6-3.5-3.5 0-2 1.5-3.5 3.5-3.5z"/>
  <defs>
    <path id="SVGID_1_" d="M438.5 0h293.4c4.1 0 7.4 3.3 7.4 7.4v556.3c0 4.1-3.3 7.4-7.4 7.4H438.5c-4.1 0-7.4-3.3-7.4-7.4V7.4c0-4.1 3.3-7.4 7.4-7.4z"/>
  </defs>
  <clipPath id="SVGID_2_">
    <use xlink:href="#SVGID_1_" overflow="visible"/>
  </clipPath>
  <g class="st3">
    <path class="st4 st5" d="M438.5 0h293.4c4.1 0 7.4 3.3 7.4 7.4v556.3c0 4.1-3.3 7.4-7.4 7.4H438.5c-4.1 0-7.4-3.3-7.4-7.4V7.4c0-4.1 3.3-7.4 7.4-7.4z"/>
    <path class="st0" d="M768 572.7H423.3c-4.8 0-8.7-3.9-8.7-8.7v-56.7h362.2V564c0 4.8-3.9 8.7-8.8 8.7z"/>
  </g>
  <path class="st2" d="M54 403.4h148.2c1.9 0 3.5 1.6 3.5 3.5s-1.6 3.5-3.5 3.5H54c-1.9 0-3.5-1.6-3.5-3.5 0-2 1.6-3.5 3.5-3.5zM54 386.4h148.2c1.9 0 3.5 1.6 3.5 3.5s-1.6 3.5-3.5 3.5H54c-1.9 0-3.5-1.6-3.5-3.5 0-2 1.6-3.5 3.5-3.5zM54 369.4h148.2c1.9 0 3.5 1.6 3.5 3.5s-1.6 3.5-3.5 3.5H54c-1.9 0-3.5-1.6-3.5-3.5 0-2 1.6-3.5 3.5-3.5z"/>
  <path class="st6" d="M705.3 21.3L722 38m-16.7 0L722 21.3"/>
</svg>
