<svg xmlns="http://www.w3.org/2000/svg" viewBox="0 0 317.13 71.72">
  <g data-name="Layer 1" fill="#31374f">
    <path d="M7 64.66q-7-7.05-7-18.81t7-18.76q7-7 18.13-7a26.3 26.3 0 0 1 15.64 4.57 21.72 21.72 0 0 1 8.5 13.07H32.56a7.35 7.35 0 0 0-7.1-4.52q-4.93 0-7.32 3.48a15.89 15.89 0 0 0-2.39 9.18A15.89 15.89 0 0 0 18.13 55a8 8 0 0 0 7 3.48 8.68 8.68 0 0 0 4.52-1A8.39 8.39 0 0 0 32.56 54h16.73a22.44 22.44 0 0 1-8.59 12.92 25.52 25.52 0 0 1-15.55 4.79Q14 71.72 7 64.66zM71.73 4.79v23.88q4.79-8 15.28-8 8.68 0 14.06 5.79t5.38 15.73v29.53H91.08V44.31q0-4.88-2.58-7.55a9.42 9.42 0 0 0-7.1-2.67 9.42 9.42 0 0 0-7.1 2.67q-2.58 2.67-2.58 7.55v27.4H56.26V4.79zM118.09 64.48q-6.69-7.23-6.69-18.54t6.69-18.58a21.34 21.34 0 0 1 16.32-7.28q9.63 0 14.79 7.14v-6.6h15.46v50.46H149.2v-7.32a17.49 17.49 0 0 1-15 8 21.15 21.15 0 0 1-16.11-7.28zm27.76-9.41q3.34-3.26 3.34-9.22t-3.34-9.18a10.76 10.76 0 0 0-15.38 0q-3.34 3.26-3.34 9.22t3.34 9.18a10.76 10.76 0 0 0 15.38 0zM199.66 58.6h5.52v13.12h-7.87q-8.5 0-13.16-3.75t-4.65-12.89v-21h-4.7V21.25h4.7V9H195v12.3h10.13v12.79H195v21q0 3.51 4.66 3.51zM229.05 63.26a8.34 8.34 0 1 1-2.44-6 8.17 8.17 0 0 1 2.44 6zM253.11 15.55a9.17 9.17 0 0 1-12.84 0 8.77 8.77 0 0 1-2.62-6.47 8.78 8.78 0 0 1 2.62-6.47 9.17 9.17 0 0 1 12.84 0 8.79 8.79 0 0 1 2.62 6.47 8.79 8.79 0 0 1-2.62 6.47zM239 71.72V21.25h15.47v50.47zM272.05 64.57q-7.64-7.14-7.64-18.81T272 27.09q7.6-7 18.81-7t18.76 7q7.55 7 7.55 18.67t-7.51 18.81q-7.51 7.15-18.72 7.14a26.57 26.57 0 0 1-18.84-7.14zm26.27-9.32q3.07-3.26 3.07-9.41t-3.16-9.36a10.19 10.19 0 0 0-7.51-3.21 10 10 0 0 0-7.46 3.21q-3.12 3.21-3.12 9.36t3.21 9.41a10.27 10.27 0 0 0 7.55 3.26 9.84 9.84 0 0 0 7.42-3.25z"/>
  </g>
</svg>
