<svg xmlns="http://www.w3.org/2000/svg" viewBox="0 0 1576.56 993.95">
  <title>
    Asset 3
  </title>
  <g data-name="Layer 1">
    <g opacity=".2" fill="#5ca7f5">
      <path d="M504.29 993.95V241.54H339.05V24.42h406.93v969.53zM1013.29 40.8q75.79-36.87 179.57-36.87t179.57 36.87q75.79 36.87 119.48 105.15t64.18 155q20.48 86.73 20.48 196t-20.48 196q-20.48 86.73-64.18 155t-119.5 105.03q-75.79 36.87-179.57 36.87t-179.55-36.87q-75.8-36.87-119.5-105.15t-64.18-155q-20.48-86.7-20.48-196t20.48-196q20.48-86.7 64.18-155t119.5-105.03zm248.53 197.32q-29.38-15.68-69-15.7t-69 15.7q-29.38 15.71-45.06 38.92t-25.26 61.45a443.65 443.65 0 0 0-12.21 73.74q-2.75 35.53-2.73 84.66t2.73 84.66a442.94 442.94 0 0 0 12.29 73.74q9.53 38.25 25.26 61.45t45.06 38.92q29.35 15.72 69 15.7t69-15.7q29.35-15.68 45.06-38.92t25.26-61.45a447.59 447.59 0 0 0 12.29-73.74q2.72-35.49 2.73-84.66t-2.73-84.66a448.31 448.31 0 0 0-12.29-73.74q-9.57-38.21-25.26-61.45t-45.15-38.92z"/>
    </g>
    <path d="M269.71 298.37q0 42.49-32.75 74t-85 36.08v41.45h-30.2v-41.49q-56.3-3.59-89-32.5T0 296.84h93.14q3.07 34.29 28.66 40.94v-80.35a450.41 450.41 0 0 1-45.29-13.31q-21.76-7.68-27.38-11.26t-15.1-9.72q-9.47-6.1-14.33-12.8t-10.49-15.3Q0 179.69 0 151.54q0-46.56 34.8-76t87-34V.04H152v41.41q53.74 3.07 85 29.43t32.75 79.58h-90.12q-3.07-28.14-27.64-37.87v80.86q51.17 14.33 67 22 50.72 25.59 50.72 82.92zM121.8 111.57q-29.69 5.64-29.68 32.24t29.68 39.41zM152 337.78q25.58-7.16 25.59-31.73T152 268.69z" fill="#5ca7f5" opacity=".2"/>
  </g>
</svg>
